<svg width="26" height="38" id="favoriteRecipes" viewBox="0 0 26 38" fill="none" xmlns="http://www.w3.org/2000/svg">
<path d="M25.8332 37.3333V4.33329C25.8332 2.31113 24.1887 0.666626 22.1665 0.666626H3.83317C1.811 0.666626 0.166504 2.31113 0.166504 4.33329V37.3333L12.9998 28.779L25.8332 37.3333ZM5.6775 11.7693C5.6775 10.728 6.08817 9.78379 6.75 9.09996C7.41184 8.41796 8.32667 7.99446 9.33867 7.99446C9.33867 7.99446 11.1647 7.98896 12.9998 9.88096C14.835 7.98896 16.661 7.99446 16.661 7.99446C17.673 7.99446 18.5878 8.41613 19.2497 9.09996C19.9115 9.78379 20.3222 10.728 20.3222 11.7693C20.3222 12.8106 19.9115 13.7566 19.2497 14.4386L12.9998 21.2055L6.75 14.4386C6.05822 13.7227 5.67339 12.7649 5.6775 11.7693Z" fill="#FAFAFA"/>
</svg>
